# xmcd
#
# Track frame offsets:
# 150
# 15134
# 36560
# 50445
# 64717
# 76651
# 89634
# 98910
# 113134
# 128324
# 139830
# 157537
#
# Disc length: 2265 seconds
#
#
# Revision: 0
# Processed by: cddbd v1.5.2PL0 Copyright (c) Steve Scherf et al.
# Submitted via: FreeRIP 2.945 
#
DISCID=8608d70c
DTITLE=The Oak Ridge Boys - Back Home Again: Gospel Favorites
DYEAR=2012
DGENRE=Bluegrass
TTITLE0=Lead Me To That Rock
TTITLE1=Back Home Again
TTITLE2=Led Out Of Bondage
TTITLE3=I Get To
TTITLE4=In That Great Gettin' Up Mornin'
TTITLE5=Why Me
TTITLE6=Standing In The Need Of Prayer
TTITLE7=Coat Of Many Colors
TTITLE8=The God Of Love
TTITLE9=River Of Jordan
TTITLE10=If We Ever Needed The Lord Before We Sure Do Now
TTITLE11=Heaven Bound
EXTD=
EXTT0=
EXTT1=
EXTT2=
EXTT3=
EXTT4=
EXTT5=
EXTT6=
EXTT7=
EXTT8=
EXTT9=
EXTT10=
EXTT11=
PLAYORDER=
